<?xml version="1.0" encoding="UTF-8" standalone="no"?>
<!-- Created with Inkscape (http://www.inkscape.org/) -->

<svg
   xmlns:dc="http://purl.org/dc/elements/1.1/"
   xmlns:cc="http://creativecommons.org/ns#"
   xmlns:rdf="http://www.w3.org/1999/02/22-rdf-syntax-ns#"
   xmlns:svg="http://www.w3.org/2000/svg"
   xmlns="http://www.w3.org/2000/svg"
   xmlns:sodipodi="http://sodipodi.sourceforge.net/DTD/sodipodi-0.dtd"
   xmlns:inkscape="http://www.inkscape.org/namespaces/inkscape"
   width="744.09448819"
   height="1052.3622047"
   id="svg2"
   version="1.1"
   inkscape:version="0.48.2 r9819"
   sodipodi:docname="keep-calm-and-node-on-light.svg"
   inkscape:export-filename="/Users/Arunoda/Desktop/keep-calm-and-node-on-light.png"
   inkscape:export-xdpi="120"
   inkscape:export-ydpi="120">
  <defs
     id="defs4">
    <inkscape:perspective
       sodipodi:type="inkscape:persp3d"
       inkscape:vp_x="0 : 526.18109 : 1"
       inkscape:vp_y="0 : 1000 : 0"
       inkscape:vp_z="744.09448 : 526.18109 : 1"
       inkscape:persp3d-origin="372.04724 : 350.78739 : 1"
       id="perspective3966" />
    <inkscape:perspective
       id="perspective3196"
       inkscape:persp3d-origin="372.04724 : 350.78739 : 1"
       inkscape:vp_z="744.09448 : 526.18109 : 1"
       inkscape:vp_y="0 : 1000 : 0"
       inkscape:vp_x="0 : 526.18109 : 1"
       sodipodi:type="inkscape:persp3d" />
    <inkscape:perspective
       id="perspective3196-6"
       inkscape:persp3d-origin="372.04724 : 350.78739 : 1"
       inkscape:vp_z="744.09448 : 526.18109 : 1"
       inkscape:vp_y="0 : 1000 : 0"
       inkscape:vp_x="0 : 526.18109 : 1"
       sodipodi:type="inkscape:persp3d" />
  </defs>
  <sodipodi:namedview
     id="base"
     pagecolor="#ffffff"
     bordercolor="#666666"
     borderopacity="1.0"
     inkscape:pageopacity="0.0"
     inkscape:pageshadow="2"
     inkscape:zoom="0.49497475"
     inkscape:cx="104.16428"
     inkscape:cy="493.63285"
     inkscape:document-units="px"
     inkscape:current-layer="layer1"
     showgrid="false"
     inkscape:window-width="1218"
     inkscape:window-height="756"
     inkscape:window-x="62"
     inkscape:window-y="302"
     inkscape:window-maximized="0" />
  <metadata
     id="metadata7">
    <rdf:RDF>
      <cc:Work
         rdf:about="">
        <dc:format>image/svg+xml</dc:format>
        <dc:type
           rdf:resource="http://purl.org/dc/dcmitype/StillImage" />
        <dc:title></dc:title>
      </cc:Work>
    </rdf:RDF>
  </metadata>
  <g
     inkscape:label="Layer 1"
     inkscape:groupmode="layer"
     id="layer1">
    <g
       style="font-size:152.44912719999999240px;font-style:normal;font-weight:normal;line-height:125%;letter-spacing:0px;word-spacing:0px;fill:#33342d;fill-opacity:1;stroke:none;font-family:Sans"
       id="text2985">
      <path
         d="m 284.44723,382.91464 -30.79472,0 -48.78372,-53.96699 0,53.96699 -23.62962,0 0,-121.9593 23.62962,0 0,54.42434 49.85086,-54.42434 28.05064,0 -55.03413,59.91251 56.71107,62.04679"
         style="font-variant:normal;font-stretch:normal;fill:#33342d;font-family:Keep Calm;-inkscape-font-specification:Keep Calm;fill-opacity:1"
         id="path4754" />
      <path
         d="m 375.47365,382.91464 -80.49314,0 0,-121.80685 80.49314,0 0,19.51349 -57.32087,0 0,29.11778 56.55863,0 0,19.05614 -56.55863,0 0,33.53881 57.32087,0 0,20.58063"
         style="font-variant:normal;font-stretch:normal;fill:#33342d;font-family:Keep Calm;-inkscape-font-specification:Keep Calm;fill-opacity:1"
         id="path4756" />
      <path
         d="m 474.32738,382.91464 -80.49314,0 0,-121.80685 80.49314,0 0,19.51349 -57.32088,0 0,29.11778 56.55863,0 0,19.05614 -56.55863,0 0,33.53881 57.32088,0 0,20.58063"
         style="font-variant:normal;font-stretch:normal;fill:#33342d;font-family:Keep Calm;-inkscape-font-specification:Keep Calm;fill-opacity:1"
         id="path4758" />
      <path
         d="m 578.05948,301.96416 c -10e-5,5.79314 -1.11806,11.23048 -3.35388,16.31205 -2.13438,4.98007 -5.08173,9.35027 -8.84205,13.11063 -3.7605,3.65882 -8.18152,6.55535 -13.26308,8.6896 -5.0817,2.03269 -10.46823,3.04902 -16.15961,3.04898 l -20.12328,0 0,39.78922 -23.62961,0 0,-121.80685 43.75289,0 c 5.69138,1.2e-4 11.07791,1.06726 16.15961,3.20143 5.08156,2.03277 9.50258,4.87849 13.26308,8.53715 3.76032,3.65889 6.70767,7.97828 8.84205,12.95818 2.23582,4.9801 3.35378,10.36663 3.35388,16.15961 m -23.47717,-0.3049 c -7e-5,-3.15053 -0.60987,-6.09788 -1.82939,-8.84205 -1.11803,-2.74399 -2.69334,-5.13236 -4.72592,-7.16511 -2.03272,-2.03256 -4.42109,-3.65868 -7.16511,-4.87837 -2.74414,-1.21949 -5.69149,-1.82929 -8.84205,-1.82939 l -15.70226,0 0,46.03963 15.70226,0 c 3.15056,6e-5 6.09791,-0.60973 8.84205,-1.82939 2.74402,-1.32116 5.13239,-3.04892 7.16511,-5.18327 2.03258,-2.13422 3.60789,-4.5734 4.72592,-7.31755 1.21952,-2.84565 1.82932,-5.84381 1.82939,-8.9945"
         style="font-variant:normal;font-stretch:normal;fill:#33342d;font-family:Keep Calm;-inkscape-font-specification:Keep Calm;fill-opacity:1"
         id="path4760" />
    </g>
    <g
       style="font-size:159.83367920000000595px;font-style:normal;font-weight:normal;line-height:125%;letter-spacing:0px;word-spacing:0px;fill:#33342d;fill-opacity:1;stroke:none;font-family:Sans"
       id="text2989">
      <path
         d="m 234.0621,538.3736 c -6.39347,7.77859 -14.17203,13.95882 -23.33572,18.54071 -9.05734,4.58189 -19.07357,6.87284 -30.04873,6.87284 -9.48353,0 -18.38093,-1.70489 -26.69222,-5.11467 -8.3114,-3.51634 -15.55718,-8.25807 -21.73738,-14.2252 -6.18026,-5.9671 -11.08182,-12.9465 -14.7047,-20.93821 -3.51635,-8.0982 -5.27452,-16.78249 -5.27451,-26.05289 -1e-5,-9.27028 1.75816,-17.90129 5.27451,-25.89306 3.62288,-8.09814 8.52444,-15.13082 14.7047,-21.09804 6.1802,-6.07357 13.42598,-10.8153 21.73738,-14.2252 8.31129,-3.40966 17.20869,-5.11455 26.69222,-5.11468 10.97516,1.3e-4 20.99139,2.29108 30.04873,6.87285 9.16369,4.58202 16.78242,10.54913 22.85622,17.90137 l -17.1022,17.5817 c -3.94268,-5.64736 -9.05735,-10.17597 -15.34404,-13.58586 -6.18032,-3.51623 -12.99989,-5.2744 -20.45871,-5.27451 -5.96719,1.1e-4 -11.61464,1.17222 -16.94237,3.51634 -5.22129,2.23777 -9.80318,5.32789 -13.74569,9.27036 -3.94261,3.83609 -7.086,8.36471 -9.43019,13.58586 -2.23771,5.11475 -3.35654,10.60237 -3.35651,16.46287 -3e-5,5.75407 1.1188,11.24168 3.35651,16.46287 2.34419,5.11472 5.48758,9.64333 9.43019,13.58586 3.94251,3.83604 8.5244,6.92615 13.74569,9.27035 5.32773,2.2377 10.97518,3.35653 16.94237,3.35651 7.88505,2e-5 14.86444,-1.75815 20.93821,-5.27451 6.07358,-3.62287 11.13497,-8.3646 15.1842,-14.2252 l 17.26204,17.74154"
         style="font-variant:normal;font-stretch:normal;fill:#33342d;font-family:Keep Calm;-inkscape-font-specification:Keep Calm;fill-opacity:1"
         id="path4763" />
      <path
         d="m 375.91449,561.38965 -27.17172,0 -11.82769,-25.57339 -62.01547,0 -11.98753,25.57339 -27.17172,0 60.41713,-127.86694 19.33987,0 60.41713,127.86694 m -48.74927,-46.19193 -21.25788,-46.0321 -21.57754,46.0321 42.83542,0"
         style="font-variant:normal;font-stretch:normal;fill:#33342d;font-family:Keep Calm;-inkscape-font-specification:Keep Calm;fill-opacity:1"
         id="path4765" />
      <path
         d="m 475.12628,561.38965 -86.47003,0 0,-127.70711 25.25373,0 0,103.73206 61.2163,0 0,23.97505"
         style="font-variant:normal;font-stretch:normal;fill:#33342d;font-family:Keep Calm;-inkscape-font-specification:Keep Calm;fill-opacity:1"
         id="path4767" />
      <path
         d="m 617.03608,561.38965 -24.29472,0 0,-85.35119 -40.27809,67.92932 -38.67975,-68.56865 0,85.99052 -24.29472,0 0,-127.86694 27.9709,0 35.48308,63.45397 37.08141,-63.45397 27.01189,0 0,127.86694"
         style="font-variant:normal;font-stretch:normal;fill:#33342d;font-family:Keep Calm;-inkscape-font-specification:Keep Calm;fill-opacity:1"
         id="path4769" />
    </g>
    <g
       style="font-size:37.78330231000000339px;font-style:normal;font-weight:normal;line-height:125%;letter-spacing:0px;word-spacing:0px;fill:#33342d;fill-opacity:1;stroke:none;font-family:Sans"
       id="text2993">
      <path
         d="m 357.33682,634.13696 -6.42316,0 -2.79597,-6.04533 -14.65992,0 -2.83375,6.04533 -6.42316,0 14.28209,-30.22664 4.57178,0 14.28209,30.22664 m -11.52391,-10.91937 -5.02518,-10.88159 -5.10074,10.88159 10.12592,0"
         style="font-variant:normal;font-stretch:normal;fill:#33342d;font-family:Keep Calm;-inkscape-font-specification:Keep Calm;fill-opacity:1"
         id="path4772" />
      <path
         d="m 385.47475,634.13696 -5.74306,0 -13.63977,-21.19643 0,21.19643 -5.74306,0 0,-30.22664 6.57429,0 12.80854,19.72288 0,-19.72288 5.74306,0 0,30.22664"
         style="font-variant:normal;font-stretch:normal;fill:#33342d;font-family:Keep Calm;-inkscape-font-specification:Keep Calm;fill-opacity:1"
         id="path4774" />
      <path
         d="m 418.05931,619.02364 c -3e-5,2.09069 -0.35268,4.05542 -1.05794,5.8942 -0.70531,1.8136 -1.68768,3.41309 -2.94709,4.79848 -1.25947,1.3602 -2.7708,2.44332 -4.534,3.24936 -1.73805,0.78086 -3.63981,1.17128 -5.70528,1.17128 l -12.61962,0 0,-30.22664 12.61962,0 c 2.06547,3e-5 3.96723,0.40305 5.70528,1.20907 1.7632,0.80607 3.27453,1.88919 4.534,3.24936 1.25941,1.36022 2.24178,2.95972 2.94709,4.79848 0.70526,1.83881 1.05791,3.79094 1.05794,5.85641 m -5.93198,-0.15113 c -3e-5,-1.28462 -0.26451,-2.54406 -0.79345,-3.77833 -0.5038,-1.25942 -1.20909,-2.36773 -2.11587,-3.32493 -0.88163,-0.98234 -1.92696,-1.7632 -3.13601,-2.34257 -1.20908,-0.6045 -2.5189,-0.90677 -3.92946,-0.9068 l -5.10075,0 0,20.62969 5.10075,0 c 1.38537,0 2.68259,-0.27708 3.89168,-0.83124 1.23423,-0.55414 2.29216,-1.29722 3.17379,-2.22921 0.90678,-0.95717 1.61207,-2.05288 2.11587,-3.28715 0.52894,-1.25943 0.79342,-2.56925 0.79345,-3.92946"
         style="font-variant:normal;font-stretch:normal;fill:#33342d;font-family:Keep Calm;-inkscape-font-specification:Keep Calm;fill-opacity:1"
         id="path4776" />
    </g>
    <g
       style="font-size:141.13014221000000248px;font-style:normal;font-weight:normal;line-height:125%;letter-spacing:0px;word-spacing:0px;fill:#33342d;fill-opacity:1;stroke:none;font-family:Sans"
       id="text2997">
      <path
         d="m 255.96051,790.32043 -21.45178,0 -50.94798,-79.17401 0,79.17401 -21.45178,0 0,-112.90411 24.55664,0 47.84312,73.66994 0,-73.66994 21.45178,0 0,112.90411"
         style="font-variant:normal;font-stretch:normal;fill:#33342d;font-family:Keep Calm;-inkscape-font-specification:Keep Calm;fill-opacity:1"
         id="path4779" />
      <path
         d="m 392.91408,733.86838 c -1.2e-4,8.09151 -1.5996,15.71253 -4.79842,22.86308 -3.10498,7.15062 -7.38593,13.36034 -12.84284,18.62918 -5.45714,5.26887 -11.80799,9.45572 -19.05257,12.56058 -7.24477,3.01078 -14.95987,4.51616 -23.14535,4.51617 -8.1856,-1e-5 -15.94775,-1.50539 -23.28647,-4.51617 -7.24472,-3.10486 -13.59557,-7.29171 -19.05257,-12.56058 -5.45705,-5.26884 -9.78504,-11.43152 -12.98397,-18.48805 -3.10487,-7.15055 -4.6573,-14.81862 -4.6573,-23.00421 0,-8.18549 1.55243,-15.85355 4.6573,-23.00422 3.19893,-7.1505 7.52692,-13.36022 12.98397,-18.62917 5.457,-5.26876 11.80785,-9.40857 19.05257,-12.41946 7.33872,-3.01066 15.10087,-4.51605 23.28647,-4.51616 8.18548,1.1e-4 15.90058,1.5055 23.14535,4.51616 7.24458,3.01089 13.59543,7.19774 19.05257,12.56059 5.45691,5.26895 9.73786,11.47867 12.84284,18.62917 3.19882,7.05658 4.7983,14.6776 4.79842,22.86309 m -22.0163,0 c -1e-4,-5.17471 -0.98801,-10.02018 -2.96373,-14.53641 -1.97592,-4.61017 -4.70444,-8.60886 -8.18555,-11.99606 -3.38721,-3.48112 -7.3859,-6.20964 -11.99606,-8.18555 -4.61033,-2.06981 -9.50284,-3.10477 -14.67754,-3.10486 -5.26892,9e-5 -10.20847,1.03505 -14.81866,3.10486 -4.6103,1.97591 -8.65603,4.70443 -12.13719,8.18555 -3.38716,3.3872 -6.06863,7.38589 -8.04442,11.99606 -1.97585,4.51623 -2.96376,9.3617 -2.96373,14.53641 -3e-5,5.08073 0.98788,9.9262 2.96373,14.5364 1.97579,4.61029 4.65726,8.65602 8.04442,12.13719 3.48116,3.38715 7.52689,6.11567 12.13719,8.18555 4.61019,1.97584 9.54974,2.96375 14.81866,2.96374 5.1747,10e-6 10.06721,-0.9879 14.67754,-2.96374 4.61016,-2.06988 8.60885,-4.7984 11.99606,-8.18555 3.48111,-3.48117 6.20963,-7.5269 8.18555,-12.13719 1.97572,-4.6102 2.96363,-9.45567 2.96373,-14.5364"
         style="font-variant:normal;font-stretch:normal;fill:#33342d;font-family:Keep Calm;-inkscape-font-specification:Keep Calm;fill-opacity:1"
         id="path4781" />
      <path
         d="m 509.70589,733.86838 c -1.1e-4,7.80925 -1.31733,15.14801 -3.95165,22.0163 -2.63453,6.77427 -6.30391,12.74878 -11.00815,17.92353 -4.70443,5.08069 -10.34963,9.12642 -16.93561,12.13719 -6.49206,2.91669 -13.59561,4.37503 -21.31066,4.37503 l -47.13746,0 0,-112.90411 47.13746,0 c 7.71505,1.1e-4 14.8186,1.5055 21.31066,4.51617 6.58598,3.01088 12.23118,7.0566 16.93561,12.13719 4.70424,5.08077 8.37362,11.05528 11.00815,17.92353 2.63432,6.8684 3.95154,14.16012 3.95165,21.87517 m -22.15743,-0.56452 c -9e-5,-4.79837 -0.988,-9.5027 -2.96374,-14.11302 -1.88182,-4.70426 -4.51624,-8.84407 -7.90329,-12.41945 -3.29311,-3.6693 -7.1977,-6.58598 -11.7138,-8.75007 -4.51622,-2.25799 -9.40873,-3.38703 -14.67753,-3.38712 l -19.05257,0 0,77.05706 19.05257,0 c 5.17471,10e-6 10.02018,-1.03494 14.5364,-3.10487 4.61018,-2.06988 8.56182,-4.84544 11.85493,-8.32668 3.38705,-3.57526 6.02147,-7.66803 7.90329,-12.27832 1.97574,-4.70429 2.96365,-9.5968 2.96374,-14.67753"
         style="font-variant:normal;font-stretch:normal;fill:#33342d;font-family:Keep Calm;-inkscape-font-specification:Keep Calm;fill-opacity:1"
         id="path4783" />
      <path
         d="m 601.02812,790.32043 -74.51672,0 0,-112.76298 74.51672,0 0,18.06466 -53.06493,0 0,26.95586 52.35928,0 0,17.64126 -52.35928,0 0,31.04864 53.06493,0 0,19.05256"
         style="font-variant:normal;font-stretch:normal;fill:#33342d;font-family:Keep Calm;-inkscape-font-specification:Keep Calm;fill-opacity:1"
         id="path4785" />
    </g>
    <g
       style="font-size:141.13014221000000248px;font-style:normal;font-weight:normal;line-height:125%;letter-spacing:0px;word-spacing:0px;fill:#33342d;fill-opacity:1;stroke:none;font-family:Sans"
       id="text3028">
      <path
         d="m 378.52514,885.11429 c -1.3e-4,8.09151 -1.5996,15.71253 -4.79843,22.86308 -3.10498,7.15062 -7.38592,13.36034 -12.84284,18.62918 -5.45714,5.26887 -11.80799,9.45573 -19.05257,12.56058 -7.24476,3.01078 -14.95987,4.51617 -23.14534,4.51617 -8.18561,0 -15.94776,-1.50539 -23.28648,-4.51617 -7.24471,-3.10485 -13.59556,-7.29171 -19.05257,-12.56058 -5.45705,-5.26884 -9.78503,-11.43151 -12.98397,-18.48805 -3.10487,-7.15055 -4.6573,-14.81862 -4.65729,-23.00421 -10e-6,-8.18549 1.55242,-15.85355 4.65729,-23.00421 3.19894,-7.15051 7.52692,-13.36023 12.98397,-18.62918 5.45701,-5.26876 11.80786,-9.40857 19.05257,-12.41946 7.33872,-3.01066 15.10087,-4.51605 23.28648,-4.51616 8.18547,1.1e-4 15.90058,1.5055 23.14534,4.51616 7.24458,3.01089 13.59543,7.19774 19.05257,12.56059 5.45692,5.26895 9.73786,11.47867 12.84284,18.62918 3.19883,7.05657 4.7983,14.67759 4.79843,22.86308 m -22.0163,0 c -1.1e-4,-5.17471 -0.98802,-10.02018 -2.96374,-14.53641 -1.97592,-4.61017 -4.70443,-8.60886 -8.18555,-11.99606 -3.38721,-3.48112 -7.38589,-6.20964 -11.99606,-8.18555 -4.61033,-2.06981 -9.50283,-3.10477 -14.67753,-3.10486 -5.26892,9e-5 -10.20847,1.03505 -14.81867,3.10486 -4.6103,1.97591 -8.65602,4.70443 -12.13719,8.18555 -3.38716,3.3872 -6.06863,7.38589 -8.04442,11.99606 -1.97585,4.51623 -2.96376,9.3617 -2.96373,14.53641 -3e-5,5.08073 0.98788,9.9262 2.96373,14.5364 1.97579,4.61029 4.65726,8.65602 8.04442,12.1372 3.48117,3.38715 7.52689,6.11566 12.13719,8.18554 4.6102,1.97585 9.54975,2.96376 14.81867,2.96374 5.1747,2e-5 10.0672,-0.98789 14.67753,-2.96374 4.61017,-2.06988 8.60885,-4.79839 11.99606,-8.18554 3.48112,-3.48118 6.20963,-7.52691 8.18555,-12.1372 1.97572,-4.6102 2.96363,-9.45567 2.96374,-14.5364"
         style="font-variant:normal;font-stretch:normal;fill:#33342d;font-family:Keep Calm;-inkscape-font-specification:Keep Calm;fill-opacity:1"
         id="path4788" />
      <path
         d="m 488.82495,941.56635 -21.45178,0 -50.94798,-79.17401 0,79.17401 -21.45178,0 0,-112.90412 24.55664,0 47.84312,73.66994 0,-73.66994 21.45178,0 0,112.90412"
         style="font-variant:normal;font-stretch:normal;fill:#33342d;font-family:Keep Calm;-inkscape-font-specification:Keep Calm;fill-opacity:1"
         id="path4790" />
    </g>
    <g
       id="layer1-5"
       transform="matrix(0.62269989,0,0,0.62269989,118.03144,-207.95654)" />
    <g
       id="layer1-1"
       inkscape:label="Layer 1"
       transform="matrix(0.57882895,0,0,0.57882895,69.825278,1423.2864)"
       style="fill:#33342d;fill-opacity:1">
      <g
         transform="matrix(2.730814,0,0,2.730814,-1186.3921,-3873.5813)"
         id="layer1-5-8"
         style="fill:#33342d;fill-opacity:1">
        <path
           sodipodi:nodetypes="sccssccsssssssccssccccssccccccccsccssccssscsscssssscsscssccs"
           inkscape:connector-curvature="0"
           d="m 633.98311,557.86282 c -1.37141,0 -2.70474,0.2836 -3.8843,0.95126 l -37.33686,21.56183 c -2.41619,1.39112 -3.8843,4.02065 -3.8843,6.81735 l 0,43.04452 c 0,2.79518 1.46811,5.42166 3.8843,6.8171 l 9.75039,5.6284 c 4.73726,2.33476 6.48441,2.29874 8.64059,2.29874 7.01394,0 11.01873,-4.2558 11.01873,-11.65278 l 0,-42.48949 c 0,-0.60069 -0.52002,-1.03066 -1.1098,-1.03066 l -4.67701,0 c -0.5993,0 -1.10981,0.42997 -1.10981,1.03066 l 0,42.48949 c 0,3.27867 -3.41501,6.57586 -8.95767,3.80503 l -10.14674,-5.94523 c -0.35831,-0.19532 -0.63418,-0.54006 -0.63418,-0.95126 l 0,-43.04452 c 0,-0.40866 0.2727,-0.82366 0.63418,-1.0304 l 37.25758,-21.48269 c 0.34879,-0.2004 0.76417,-0.2004 1.1098,0 l 37.25758,21.48269 c 0.35514,0.21308 0.63417,0.60931 0.63417,1.0304 l 0,43.04452 c 0,0.4112 -0.20623,0.83229 -0.5549,1.03041 l -37.33685,21.48269 c -0.32026,0.19025 -0.76101,0.19025 -1.1098,0 l -9.59185,-5.70755 c -0.28538,-0.16742 -0.67539,-0.15474 -0.95126,0 -2.64766,1.50096 -3.14549,1.67548 -5.62827,2.53669 -0.61197,0.21308 -1.54104,0.54463 0.31709,1.58543 l 12.52489,7.37212 c 1.19224,0.68997 2.52083,1.0304 3.8843,1.0304 1.38249,0 2.69206,-0.34043 3.8843,-1.0304 l 37.33685,-21.48269 c 2.4162,-1.40533 3.8843,-4.02192 3.8843,-6.8171 l 0,-43.04452 c 0,-2.7967 -1.4681,-5.42039 -3.8843,-6.81735 l -37.33685,-21.56183 c -1.17005,-0.66766 -2.51289,-0.95126 -3.8843,-0.95126 z m 9.9882,30.75783 c -10.63189,0 -16.96409,4.52469 -16.96409,12.04926 0,8.16281 6.28464,10.40549 16.48846,11.41509 12.20781,1.19504 13.15906,2.98746 13.15906,5.39046 0,4.16803 -3.32306,5.94523 -11.17727,5.94523 -9.86771,0 -12.03658,-2.46337 -12.76271,-7.37211 -0.0855,-0.52637 -0.49148,-0.95126 -1.03052,-0.95126 l -4.83556,0 c -0.59612,0 -1.1098,0.51266 -1.1098,1.1098 0,6.28337 3.41818,13.71409 19.73859,13.71409 11.81462,0 18.62879,-4.63757 18.62879,-12.76283 0,-8.055 -5.50461,-10.21702 -16.96409,-11.73218 -11.57998,-1.53216 -12.68343,-2.282 -12.68343,-4.99397 0,-2.23863 0.9354,-5.23217 9.51257,-5.23217 7.66079,0 10.49237,1.65214 11.6529,6.8176 0.10147,0.48552 0.52954,0.87185 1.03053,0.87185 l 4.83556,0 c 0.29806,0 0.58661,-0.18264 0.79272,-0.39648 0.20293,-0.2283 0.34562,-0.48552 0.31708,-0.79246 -0.74832,-8.89591 -6.681,-13.07992 -18.62879,-13.07992 z"
           id="path28"
           style="fill:#33342d;fill-opacity:1;fill-rule:evenodd;stroke:none" />
      </g>
    </g>
  </g>
</svg>
